<svg xmlns="http://www.w3.org/2000/svg" viewBox="0 0 160 160" shape-rendering="crispEdges" aria-label="Pixel goat">
  <rect width="160" height="160" fill="#ffffff"/>

  <!-- horns -->
  <rect x="56" y="10" width="8" height="8" fill="#1a1a1a"/>
  <rect x="48" y="18" width="8" height="8" fill="#1a1a1a"/>
  <rect x="40" y="26" width="8" height="8" fill="#1a1a1a"/>
  <rect x="32" y="18" width="8" height="8" fill="#1a1a1a"/>
  <rect x="24" y="10" width="8" height="8" fill="#1a1a1a"/>
  <rect x="104" y="10" width="8" height="8" fill="#1a1a1a"/>
  <rect x="112" y="18" width="8" height="8" fill="#1a1a1a"/>
  <rect x="120" y="26" width="8" height="8" fill="#1a1a1a"/>
  <rect x="128" y="18" width="8" height="8" fill="#1a1a1a"/>
  <rect x="136" y="10" width="8" height="8" fill="#1a1a1a"/>

  <rect x="48" y="10" width="8" height="8" fill="#b77b68"/>
  <rect x="40" y="18" width="8" height="8" fill="#b77b68"/>
  <rect x="32" y="26" width="8" height="8" fill="#b77b68"/>
  <rect x="24" y="18" width="8" height="8" fill="#b77b68"/>
  <rect x="16" y="10" width="8" height="8" fill="#b77b68"/>
  <rect x="112" y="10" width="8" height="8" fill="#b77b68"/>
  <rect x="120" y="18" width="8" height="8" fill="#b77b68"/>
  <rect x="128" y="26" width="8" height="8" fill="#b77b68"/>
  <rect x="136" y="18" width="8" height="8" fill="#b77b68"/>
  <rect x="144" y="10" width="8" height="8" fill="#b77b68"/>

  <!-- head outline -->
  <rect x="48" y="40" width="64" height="8" fill="#111111"/>
  <rect x="40" y="48" width="80" height="8" fill="#111111"/>
  <rect x="32" y="56" width="96" height="8" fill="#111111"/>
  <rect x="32" y="64" width="96" height="8" fill="#111111"/>
  <rect x="32" y="72" width="96" height="8" fill="#111111"/>
  <rect x="40" y="80" width="80" height="8" fill="#111111"/>
  <rect x="48" y="88" width="64" height="8" fill="#111111"/>

  <!-- head fill -->
  <rect x="48" y="48" width="64" height="8" fill="#f7d57f"/>
  <rect x="40" y="56" width="80" height="8" fill="#f7d57f"/>
  <rect x="40" y="64" width="80" height="8" fill="#f7d57f"/>
  <rect x="40" y="72" width="80" height="8" fill="#f7d57f"/>
  <rect x="48" y="80" width="64" height="8" fill="#f7d57f"/>

  <!-- ears -->
  <rect x="24" y="58" width="8" height="8" fill="#111111"/>
  <rect x="16" y="66" width="8" height="8" fill="#111111"/>
  <rect x="24" y="74" width="8" height="8" fill="#111111"/>
  <rect x="32" y="66" width="8" height="8" fill="#f7d57f"/>
  <rect x="32" y="74" width="8" height="8" fill="#f7d57f"/>

  <rect x="128" y="58" width="8" height="8" fill="#111111"/>
  <rect x="136" y="66" width="8" height="8" fill="#111111"/>
  <rect x="128" y="74" width="8" height="8" fill="#111111"/>
  <rect x="120" y="66" width="8" height="8" fill="#f7d57f"/>
  <rect x="120" y="74" width="8" height="8" fill="#f7d57f"/>

  <!-- face -->
  <rect x="58" y="64" width="8" height="8" fill="#111111"/>
  <rect x="82" y="64" width="8" height="8" fill="#111111"/>
  <rect x="66" y="80" width="16" height="8" fill="#111111"/>
  <rect x="74" y="72" width="8" height="8" fill="#f1c96f"/>

  <!-- snout -->
  <rect x="44" y="88" width="72" height="24" fill="#f8e7b8"/>
  <rect x="36" y="96" width="88" height="16" fill="#f8e7b8"/>
  <rect x="60" y="96" width="8" height="8" fill="#111111"/>
  <rect x="80" y="96" width="8" height="8" fill="#111111"/>
  <rect x="68" y="104" width="16" height="8" fill="#111111"/>

  <!-- beard -->
  <rect x="60" y="112" width="40" height="8" fill="#111111"/>
  <rect x="64" y="120" width="32" height="8" fill="#111111"/>
  <rect x="72" y="128" width="16" height="8" fill="#111111"/>
  <rect x="72" y="136" width="16" height="8" fill="#f4a65f"/>

  <!-- body -->
  <rect x="88" y="72" width="56" height="16" fill="#f7d57f"/>
  <rect x="80" y="88" width="64" height="16" fill="#f7d57f"/>
  <rect x="72" y="104" width="72" height="16" fill="#f7d57f"/>
  <rect x="80" y="120" width="56" height="8" fill="#f7d57f"/>

  <!-- tail -->
  <rect x="136" y="64" width="8" height="8" fill="#111111"/>
  <rect x="144" y="72" width="8" height="8" fill="#111111"/>
  <rect x="136" y="80" width="8" height="8" fill="#111111"/>
  <rect x="128" y="72" width="8" height="8" fill="#f7d57f"/>

  <!-- legs -->
  <rect x="72" y="128" width="8" height="24" fill="#111111"/>
  <rect x="96" y="128" width="8" height="24" fill="#111111"/>
  <rect x="120" y="128" width="8" height="24" fill="#111111"/>
  <rect x="136" y="128" width="8" height="24" fill="#111111"/>
  <rect x="72" y="152" width="8" height="8" fill="#666666"/>
  <rect x="96" y="152" width="8" height="8" fill="#666666"/>
  <rect x="120" y="152" width="8" height="8" fill="#666666"/>
  <rect x="136" y="152" width="8" height="8" fill="#666666"/>
</svg>
